<svg height="472pt" viewBox="-21 0 472 472" width="472pt" xmlns="http://www.w3.org/2000/svg">
<path xmlns="http://www.w3.org/2000/svg" d="m74.019531 244.449219c3.222657 3.230469 7.597657 5.046875 12.160157 5.039062h154.511718c9.492188 0 17.1875-7.695312 17.1875-17.1875 0-9.496093-7.695312-17.191406-17.1875-17.191406h-10.742187v-28.4375h152.5625l21.488281 193.378906h-376.019531l21.488281-193.378906h45.300781v28.4375h-8.589843c-6.949219 0-13.21875 4.1875-15.878907 10.609375-2.660156 6.421875-1.195312 13.8125 3.71875 18.730469zm294.921875 101.730469-2.640625-23.710938-2.640625-23.75-2.609375-23.527344-2.859375-25.703125h-75.203125l-2.847656 25.703125-2.621094 23.527344-2.640625 23.75-2.628906 23.710938zm0 0" fill="#5f8ed0"/>
<path xmlns="http://www.w3.org/2000/svg" d="m215.988281 406.910156c2.96875 0 5.371094-2.40625 5.371094-5.371094 0-2.964843-2.402344-5.367187-5.371094-5.367187-2.964843 0-5.367187 2.402344-5.367187 5.367187-.003906 1.425782.5625 2.792969 1.570312 3.800782 1.007813 1.007812 2.375 1.570312 3.796875 1.570312zm209.492188-26.859375v85.949219h-418.980469v-85.949219zm0 0" fill="#5f8ed0"/>
<path xmlns="http://www.w3.org/2000/svg" d="m366.71875 121.328125v30.082031h-96.6875v-30.082031zm0 0" fill="#00aa1f"/>
<path xmlns="http://www.w3.org/2000/svg" d="m258.921875 6c-16.023437.070312-28.972656 13.078125-28.972656 29.101562v191.820313h-135.179688v-191.953125c0-16 12.972657-28.96875 28.96875-28.96875zm0 0" fill="#fceba9"/>
<path xmlns="http://www.w3.org/2000/svg" d="m259.050781 6c16.074219-.007812 29.105469 13.027344 29.097657 29.101562v56.136719l-58.199219-.929687v-55.207032c0-16.023437 12.949219-29.03125 28.972656-29.101562zm0 0" fill="#e0d194"/>
<path xmlns="http://www.w3.org/2000/svg" d="m240.691406 215.109375c9.492188 0 17.1875 7.695313 17.1875 17.191406 0 9.492188-7.695312 17.1875-17.1875 17.1875h-154.511718c-9.492188 0-17.191407-7.695312-17.191407-17.1875 0-9.496093 7.699219-17.191406 17.191407-17.191406h8.589843v11.8125h135.179688v-11.8125zm0 0" fill="#000000"/>
<path d="m6 472h418.996094c3.3125 0 6-2.6875 6-6v-85.945312c0-3.316407-2.6875-6-6-6h-16.125l-20.890625-188.042969c-.339844-3.039063-2.90625-5.339844-5.964844-5.339844h-58.140625v-23.257813h42.347656c3.3125 0 6-2.6875 6-6v-30.082031c0-3.3125-2.6875-6-6-6h-96.691406c-3.316406 0-6 2.6875-6 6v30.082031c0 3.3125 2.683594 6 6 6h42.34375v23.257813h-76.417969v-84.265625l52.097657.828125c1.609374.035156 3.164062-.585937 4.304687-1.722656 1.148437-1.125 1.792969-2.667969 1.792969-4.273438v-56.136719c-.023438-19.378906-15.722656-35.0781245-35.101563-35.101562-.042969 0-.089843 0-.132812 0h-135.175781c-19.300782.0234375-34.945313 15.664062-34.96875 34.96875v145.703125h-39.296876c-3.058593 0-5.628906 2.300781-5.964843 5.339844l-20.894531 188.042969h-16.117188c-3.3125 0-6 2.683593-6 6v85.945312c0 3.3125 2.6875 6 6 6zm269.53125-344.667969h84.691406v18.082031h-84.691406zm-40.074219-92.230469c0-12.757812 10.339844-23.101562 23.097657-23.101562 12.757812 0 23.101562 10.34375 23.101562 23.101562v50.039063l-46.199219-.738281zm-141.183593 197.824219h135.183593c3.3125 0 6-2.6875 6-6v-5.820312h4.738281c4.023438-.035157 7.757813 2.085937 9.777344 5.566406 2.023438 3.476563 2.023438 7.773437 0 11.25-2.019531 3.476563-5.753906 5.601563-9.777344 5.5625h-154.515624c-6.136719-.054687-11.082032-5.050781-11.082032-11.1875 0-6.140625 4.945313-11.132813 11.082032-11.191406h2.59375v5.820312c0 3.3125 2.6875 6 6 6zm6-197.957031c.015624-12.679688 10.292968-22.953125 22.96875-22.96875h108.90625c-5.609376 6.386719-8.699219 14.597656-8.691407 23.101562v185.824219h-123.183593zm-45.929688 157.703125h33.929688v16.433594h-2.59375c-12.746094.085937-23.035157 10.441406-23.035157 23.191406 0 12.746094 10.289063 23.105469 23.035157 23.1875h154.515624c8.320313.054687 16.035157-4.351563 20.210938-11.550781 4.175781-7.195313 4.175781-16.078125 0-23.277344-4.175781-7.195312-11.890625-11.605469-20.210938-11.550781h-4.742187v-16.433594h79c2.054687 1.433594 4.785156 1.433594 6.839844 0h55.351562l20.152344 181.382813h-362.605469zm-42.34375 193.382813h406.996094v73.945312h-406.996094zm0 0"/>
<path fill="#00aa1f" d="m129.867188 143.050781c3.605468.003907 6.527343 2.925781 6.53125 6.53125 0 3.316407 2.683593 6 6 6 3.3125 0 6-2.683593 6-6-.015626-7.914062-5.046876-14.945312-12.53125-17.515625v-1.898437c0-3.3125-2.6875-6-6-6s-6 2.6875-6 6v1.898437c-8.574219 2.929688-13.769532 11.632813-12.28125 20.566406 1.488281 8.9375 9.222656 15.484376 18.28125 15.480469 3.578124.011719 6.480468 2.90625 6.503906 6.484375.023437 3.578125-2.839844 6.507813-6.417969 6.570313-.027344 0-.058594 0-.085937 0-.027344 0-.058594 0-.085938 0-3.570312-.050781-6.4375-2.957031-6.445312-6.523438 0-3.316406-2.683594-6-6-6-3.3125 0-6 2.683594-6 6 .015624 7.910157 5.046874 14.945313 12.53125 17.511719v2.472656c0 3.3125 2.6875 6 6 6s6-2.6875 6-6v-2.472656c8.570312-2.929688 13.765624-11.628906 12.277343-20.5625-1.488281-8.9375-9.21875-15.484375-18.277343-15.480469-3.574219-.042969-6.449219-2.957031-6.449219-6.53125s2.875-6.484375 6.449219-6.53125zm0 0"/>
<path d="m194.363281 71.113281h12.027344c3.3125 0 6-2.6875 6-6s-2.6875-6-6-6h-12.027344c-3.3125 0-6 2.6875-6 6s2.6875 6 6 6zm0 0"/>
<path d="m115.472656 71.113281h58.113282c3.3125 0 6-2.6875 6-6s-2.6875-6-6-6h-58.113282c-3.3125 0-6 2.6875-6 6s2.6875 6 6 6zm0 0"/>
<path d="m194.363281 40.515625h12.027344c3.3125 0 6-2.6875 6-6s-2.6875-6-6-6h-12.027344c-3.3125 0-6 2.6875-6 6s2.6875 6 6 6zm0 0"/>
<path d="m115.472656 40.515625h58.113282c3.3125 0 6-2.6875 6-6s-2.6875-6-6-6h-58.113282c-3.3125 0-6 2.6875-6 6s2.6875 6 6 6zm0 0"/>
<path d="m194.363281 101.710938h12.027344c3.3125 0 6-2.683594 6-6 0-3.3125-2.6875-6-6-6h-12.027344c-3.3125 0-6 2.6875-6 6 0 3.316406 2.6875 6 6 6zm0 0"/>
<path d="m115.472656 101.710938h58.113282c3.3125 0 6-2.683594 6-6 0-3.3125-2.6875-6-6-6h-58.113282c-3.3125 0-6 2.6875-6 6 0 3.316406 2.6875 6 6 6zm0 0"/>
<path d="m160.054688 190.898438c0 3.316406 2.6875 6 6 6h19.582031c3.3125 0 6-2.683594 6-6 0-3.3125-2.6875-6-6-6h-19.582031c-3.3125 0-6 2.6875-6 6zm0 0"/>
<path d="m204.972656 184.898438h-2.390625c-3.316406 0-6 2.6875-6 6 0 3.316406 2.683594 6 6 6h2.390625c3.3125 0 6-2.683594 6-6 0-3.3125-2.6875-6-6-6zm0 0"/>
<path d="m215.496094 390.167969c-6.28125 0-11.375 5.089843-11.375 11.371093s5.09375 11.371094 11.375 11.371094 11.371094-5.089844 11.371094-11.371094c-.007813-6.277343-5.09375-11.363281-11.371094-11.371093zm0 12c-.347656 0-.628906-.28125-.628906-.628907 0-.347656.28125-.628906.628906-.628906s.625.28125.625.628906c0 .347657-.277344.628907-.625.628907zm0 0"/>
<path d="m240.195312 275.714844h-154.515624c-3.3125 0-6 2.6875-6 6 0 3.316406 2.6875 6 6 6h154.515624c3.3125 0 6-2.683594 6-6 0-3.3125-2.6875-6-6-6zm0 0"/>
<path d="m240.195312 307.945312h-154.515624c-3.3125 0-6 2.6875-6 6s2.6875 6 6 6h154.515624c3.3125 0 6-2.6875 6-6s-2.6875-6-6-6zm0 0"/>
<path d="m240.195312 340.175781h-154.515624c-3.3125 0-6 2.6875-6 6s2.6875 6 6 6h154.515624c3.3125 0 6-2.6875 6-6s-2.6875-6-6-6zm0 0"/>
<path d="m363.660156 248.824219c-.335937-3.039063-2.90625-5.339844-5.960937-5.339844h-75.203125c-3.058594 0-5.625 2.300781-5.964844 5.339844l-10.742188 96.6875c-.1875 1.699219.355469 3.394531 1.492188 4.664062 1.136719 1.273438 2.765625 2 4.472656 2h96.6875c1.707032 0 3.332032-.726562 4.472656-2 1.136719-1.269531 1.679688-2.964843 1.492188-4.664062zm-7.175781 44.074219h-72.777344l1.292969-11.632813h70.195312zm1.335937 12 1.292969 11.636718h-78.03125l1.292969-11.636718zm-5.492187-49.417969 1.53125 13.785156h-67.523437l1.527343-13.785156zm-73.875 84.691406 1.292969-11.636719h80.703125l1.292969 11.636719zm0 0"/>
</svg>