<svg height="503pt" viewBox="-56 0 503 503.6882" width="503pt" xmlns="http://www.w3.org/2000/svg" >
<path xmlns="http://www.w3.org/2000/svg" d="m168.875 451.472656-32.5 26-32.5-26-32.5 26-32.5-26-32.507812 26v-471.46875l32.488281 26 32.5-26 32.5 26 32.5-26 32.5 26 32.5-26 32.5 26 32.511719-26v251.75c-.332032-.011718-.671876-.011718-1-.011718-45.644532-.003907-87.339844 25.894531-107.570313 66.8125-20.230469 40.917968-15.496094 89.769531 12.21875 126.039062zm-29.71875-305.152344v-76.269531h-99.050781v76.269531zm0 0" fill="#fceba9"/>
<path d="m169.667969 76.054688h62.9375c3.3125 0 6-2.6875 6-6 0-3.316407-2.6875-6-6-6h-62.9375c-3.316407 0-6 2.683593-6 6 0 3.3125 2.683593 6 6 6zm0 0"/>
<path d="m169.667969 101.476562h62.9375c3.3125 0 6-2.6875 6-6 0-3.316406-2.6875-6-6-6h-62.9375c-3.316407 0-6 2.683594-6 6 0 3.3125 2.683593 6 6 6zm0 0"/>
<path d="m40.085938 245.660156h2.320312c3.316406 0 6-2.683594 6-6 0-3.3125-2.683594-6-6-6h-2.320312c-3.316407 0-6 2.6875-6 6 0 3.316406 2.683593 6 6 6zm0 0"/>
<path d="m83.160156 233.660156h-17.558594c-3.3125 0-6 2.6875-6 6 0 3.316406 2.6875 6 6 6h17.558594c3.316406 0 6-2.683594 6-6 0-3.3125-2.683594-6-6-6zm0 0"/>
<path d="m232.605469 233.660156h-125.875c-3.316407 0-6 2.6875-6 6 0 3.316406 2.683593 6 6 6h125.875c3.3125 0 6-2.683594 6-6 0-3.3125-2.6875-6-6-6zm0 0"/>
<path d="m40.085938 196.136719h2.320312c3.316406 0 6-2.6875 6-6s-2.683594-6-6-6h-2.320312c-3.316407 0-6 2.6875-6 6s2.683593 6 6 6zm0 0"/>
<path d="m83.160156 184.136719h-17.558594c-3.3125 0-6 2.6875-6 6s2.6875 6 6 6h17.558594c3.316406 0 6-2.6875 6-6s-2.683594-6-6-6zm0 0"/>
<path d="m232.605469 184.136719h-125.875c-3.316407 0-6 2.6875-6 6s2.683593 6 6 6h125.875c3.3125 0 6-2.6875 6-6s-2.6875-6-6-6zm0 0"/>
<path d="m40.085938 305.183594h2.320312c3.316406 0 6-2.683594 6-6 0-3.3125-2.683594-6-6-6h-2.320312c-3.316407 0-6 2.6875-6 6 0 3.316406 2.683593 6 6 6zm0 0"/>
<path d="m83.160156 293.183594h-17.558594c-3.3125 0-6 2.6875-6 6 0 3.316406 2.6875 6 6 6h17.558594c3.316406 0 6-2.683594 6-6 0-3.3125-2.683594-6-6-6zm0 0"/>
<path fill="#00aa1f" d="m54.851562 359.15625c4.839844.003906 8.761719 3.925781 8.765626 8.765625 0 3.3125 2.6875 6 6 6s6-2.6875 6-6c-.011719-9.152344-6.007813-17.21875-14.765626-19.875v-3c0-3.3125-2.6875-6-6-6-3.316406 0-6 2.6875-6 6v3c-9.859374 2.976563-16.046874 12.726563-14.542968 22.910156 1.503906 10.1875 10.246094 17.730469 20.542968 17.734375 4.839844-.03125 8.785157 3.871094 8.8125 8.710938.027344 4.839844-3.875 8.789062-8.714843 8.816406-.03125 0-.066407 0-.097657 0-.035156 0-.070312 0-.101562 0-4.796875-.0625-8.660156-3.964844-8.664062-8.761719 0-3.316406-2.6875-6-6-6-3.316407 0-6 2.683594-6 6 .011718 9.152344 6.007812 17.21875 14.765624 19.875v3.675781c0 3.3125 2.6875 6 6 6s6-2.6875 6-6v-3.675781c9.859376-2.976562 16.046876-12.726562 14.542969-22.910156-1.503906-10.1875-10.246093-17.734375-20.542969-17.730469-4.804687-.054687-8.675781-3.964844-8.675781-8.769531s3.871094-8.714844 8.675781-8.765625zm0 0"/>
<path d="m268.945312.597656c-2.078124-1-4.546874-.71875-6.347656.722656l-28.753906 23-28.757812-23c-2.191407-1.753906-5.308594-1.753906-7.5 0l-28.753907 23-28.75-23c-2.191406-1.753906-5.308593-1.753906-7.5 0l-28.75 23-28.753906-23c-2.191406-1.753906-5.308594-1.753906-7.5 0l-28.734375 23-28.746094-23c-1.800781-1.445312-4.269531-1.726562-6.351562-.730468-2.082032 1-3.402344 3.105468-3.402344 5.414062v471.464844c0 2.308594 1.320312 4.410156 3.402344 5.410156 2.078125 1 4.542968.71875 6.347656-.722656l28.753906-23 28.757813 23c2.195312 1.753906 5.308593 1.753906 7.5 0l28.753906-23 28.75 23c2.195313 1.753906 5.308594 1.753906 7.5 0l29-23.199219c37.066406 43.921875 99.160156 57.191407 150.941406 32.253907 51.78125-24.941407 80.117188-81.765626 68.878907-138.128907-11.238282-56.363281-59.199219-97.972656-116.585938-101.148437v-245.929688c0-2.304687-1.320312-4.410156-3.398438-5.40625zm-132.589843 469.191406-28.75-23c-2.195313-1.757812-5.308594-1.757812-7.5 0l-28.753907 23-28.757812-23c-2.191406-1.757812-5.308594-1.757812-7.5 0l-22.75 18.199219v-446.5l22.746094 18.199219c2.191406 1.757812 5.308594 1.757812 7.5 0l28.746094-23 28.753906 23c2.191406 1.757812 5.304687 1.757812 7.5 0l28.75-23 28.75 23c2.191406 1.757812 5.308594 1.757812 7.5 0l28.753906-23 28.757812 23c2.191407 1.757812 5.308594 1.757812 7.5 0l22.757813-18.199219v233.355469c-33.808594 1.332031-65.652344 16.234375-88.335937 41.339844h-65.292969c-3.316407 0-6 2.6875-6 6 0 3.316406 2.683593 6 6 6h55.65625c-30.503907 43.179687-30.742188 100.824218-.59375 144.25zm242.988281-92.050781c0 62.960938-51.039062 114-114 114s-114-51.039062-114-114c0-62.960937 51.039062-114 114-114 62.929688.070313 113.929688 51.066407 114 114zm0 0"/>
<path fill="#00aa1f" d="m108.34375 359.15625c4.839844.003906 8.761719 3.925781 8.765625 8.765625 0 3.3125 2.6875 6 6 6 3.316406 0 6-2.6875 6-6-.011719-9.152344-6.007813-17.21875-14.765625-19.875v-3c0-3.3125-2.6875-6-6-6s-6 2.6875-6 6v3c-9.859375 2.972656-16.050781 12.722656-14.546875 22.910156 1.503906 10.191407 10.25 17.734375 20.546875 17.734375 4.839844-.03125 8.785156 3.871094 8.8125 8.710938.03125 4.839844-3.871094 8.789062-8.710938 8.816406-.035156 0-.066406 0-.101562 0-.03125 0-.066406 0-.101562 0-4.796876-.0625-8.65625-3.964844-8.664063-8.761719 0-3.316406-2.6875-6-6-6s-6 2.683594-6 6c.011719 9.152344 6.007813 17.21875 14.765625 19.875v3.675781c0 3.3125 2.6875 6 6 6s6-2.6875 6-6v-3.675781c9.859375-2.976562 16.046875-12.726562 14.542969-22.910156-1.503907-10.1875-10.246094-17.734375-20.542969-17.730469-3.152344.03125-6.082031-1.632812-7.671875-4.359375-1.585937-2.726562-1.585937-6.09375 0-8.820312 1.589844-2.726563 4.519531-4.390625 7.671875-4.355469zm0 0"/>
<path d="m40.085938 152.320312h99.046874c3.3125 0 6-2.6875 6-6v-76.265624c0-3.316407-2.6875-6-6-6h-99.046874c-3.316407 0-6 2.683593-6 6v76.265624c0 3.3125 2.683593 6 6 6zm6-76.265624h87.046874v64.265624h-87.046874zm0 0"/>
<path d="m169.667969 152.320312h62.9375c3.3125 0 6-2.6875 6-6s-2.6875-6-6-6h-62.9375c-3.316407 0-6 2.6875-6 6s2.683593 6 6 6zm0 0"/>
<path d="m169.667969 126.898438h62.9375c3.3125 0 6-2.6875 6-6 0-3.316407-2.6875-6-6-6h-62.9375c-3.316407 0-6 2.683593-6 6 0 3.3125 2.683593 6 6 6zm0 0"/>
<path xmlns="http://www.w3.org/2000/svg" d="m174.648438 299.183594c22.773437-26.351563 55.890624-41.480469 90.71875-41.441406.328124 0 .667968 0 1 .011718 56.328124.480469 104.738281 40.089844 116.363281 95.210938 11.625 55.117187-16.664063 110.902344-68.003907 134.09375-51.335937 23.1875-111.894531 7.535156-145.566406-37.625s-31.390625-107.667969 5.488282-150.25zm0 0" fill="#00aa1f"/>
<path d="m261.257812 318.9375-45 41.882812c-2.425781 2.257813-2.5625 6.050782-.304687 8.476563s6.054687 2.5625 8.480469.304687l34.910156-32.492187v95.035156c0 3.3125 2.6875 6 6 6s6-2.6875 6-6v-95.035156l34.914062 32.492187c2.425782 2.257813 6.21875 2.121094 8.476563-.304687s2.125-6.21875-.300781-8.476563l-45-41.882812c-2.304688-2.144531-5.875-2.144531-8.175782 0zm0 0"/>
</svg>