<?xml version="1.0" encoding="iso-8859-1"?>
<!-- Generator: Adobe Illustrator 19.0.0, SVG Export Plug-In . SVG Version: 6.00 Build 0)  -->
<svg version="1.1" id="Capa_1" xmlns="http://www.w3.org/2000/svg" xmlns:xlink="http://www.w3.org/1999/xlink" x="0px" y="0px"
	 viewBox="0 0 511.816 511.816" style="enable-background:new 0 0 511.816 511.816;" xml:space="preserve">
<g>
	<g transform="translate(1 1)">
		<path style="fill:#5f8ed0;" d="M347.609,95.516L195.963,7.937c-3.381-2.37-7.703-2.948-11.587-1.549l-0.067-0.067l-33.684,19.402
			l0.067,0.067c-3.966,2.347-6.183,6.806-5.659,11.385v347.352c0.701,12.063,7.106,23.071,17.246,29.642l151.646,87.579
			c3.381,2.37,7.703,2.948,11.587,1.549l1.617-0.943l31.326-18.122l0.135-0.067l0.539-0.337c3.951-2.329,6.167-6.76,5.659-11.318
			V125.158C364.118,113.103,357.736,102.091,347.609,95.516z"/>
		<path style="fill:#A4C2F7;" d="M331.104,144.56v347.352c0.528,4.563-1.658,9.014-5.592,11.385
			c-3.885,1.398-8.207,0.82-11.587-1.549l-151.646-87.579c-10.141-6.571-16.545-17.579-17.246-29.642V37.175
			c-0.524-4.579,1.692-9.038,5.659-11.385c3.884-1.404,8.209-0.826,11.587,1.549l151.646,87.579
			C324.061,121.484,330.446,132.501,331.104,144.56L331.104,144.56z"/>
		
			<linearGradient id="SVGID_1_" gradientUnits="userSpaceOnUse" x1="-50.0511" y1="651.3424" x2="-48.5573" y2="650.5908" gradientTransform="matrix(186.0716 0 0 -369.8526 9412.1738 241019.9219)">
			<stop  offset="0" style="stop-color:#D3DFF2"/>
			<stop  offset="0.1717" style="stop-color:#D3DFF2"/>
			<stop  offset="0.2" style="stop-color:#D3DFF2"/>
			<stop  offset="0.2002" style="stop-color:#DAE2F2"/>
			<stop  offset="0.2007" style="stop-color:#EBEAF2"/>
			<stop  offset="0.2014" style="stop-color:#F6EFF2"/>
			<stop  offset="0.2023" style="stop-color:#FDF2F2"/>
			<stop  offset="0.205" style="stop-color:#FFF3F2"/>
			<stop  offset="0.2522" style="stop-color:#FFF3F2"/>
			<stop  offset="0.26" style="stop-color:#FFF3F2"/>
			<stop  offset="0.26" style="stop-color:#D3DFF2"/>
			<stop  offset="0.3974" style="stop-color:#D3DFF2"/>
			<stop  offset="0.42" style="stop-color:#D3DFF2"/>
			<stop  offset="0.4202" style="stop-color:#DAE2F2"/>
			<stop  offset="0.4207" style="stop-color:#EBEAF2"/>
			<stop  offset="0.4214" style="stop-color:#F6EFF2"/>
			<stop  offset="0.4223" style="stop-color:#FDF2F2"/>
			<stop  offset="0.425" style="stop-color:#FFF3F2"/>
			<stop  offset="0.4894" style="stop-color:#FFF3F2"/>
			<stop  offset="0.5" style="stop-color:#FFF3F2"/>
			<stop  offset="0.5" style="stop-color:#F8F0F2"/>
			<stop  offset="0.5001" style="stop-color:#E7E8F2"/>
			<stop  offset="0.5003" style="stop-color:#DCE3F2"/>
			<stop  offset="0.5005" style="stop-color:#D5E0F2"/>
			<stop  offset="0.501" style="stop-color:#D3DFF2"/>
			<stop  offset="0.7062" style="stop-color:#D3DFF2"/>
			<stop  offset="0.74" style="stop-color:#D3DFF2"/>
			<stop  offset="0.741" style="stop-color:#FFF3F2"/>
			<stop  offset="0.8346" style="stop-color:#FFF3F2"/>
			<stop  offset="0.85" style="stop-color:#FFF3F2"/>
			<stop  offset="0.851" style="stop-color:#D3DFF2"/>
		</linearGradient>
		<polygon style="fill:url(#SVGID_1_);" points="331.106,180.737 331.106,443.137 145.034,335.685 145.034,73.285 		"/>
		<g>
			<path style="fill:#7FACFA;" d="M243.907,106.576c-0.59,0-1.17-0.155-1.681-0.451l-29.072-16.786
				c-1.611-0.93-2.164-2.991-1.234-4.602s2.991-2.164,4.602-1.234l29.072,16.786c1.322,0.762,1.966,2.318,1.57,3.791
				C246.769,105.554,245.433,106.578,243.907,106.576L243.907,106.576z"/>
			<path style="fill:#7FACFA;" d="M267.174,120.004c-0.591,0-1.172-0.155-1.684-0.451l-5.816-3.355
				c-1.043-0.601-1.686-1.714-1.686-2.918c0-1.204,0.642-2.317,1.685-2.919c1.043-0.602,2.328-0.602,3.37,0.001l5.816,3.355
				c1.319,0.763,1.961,2.317,1.567,3.789C270.031,118.978,268.698,120.002,267.174,120.004L267.174,120.004z"/>
			
				<ellipse transform="matrix(-0.505 -0.8631 0.8631 -0.505 -5.0908 839.2158)" style="fill:#7FACFA;" cx="238.1" cy="421.068" rx="24.589" ry="14.195"/>
		</g>
		<g>
			<path style="fill:#D4E1F4;" d="M251.957,323.007c-5.502-0.182-10.86-1.804-15.539-4.704
				c-18.737-11.73-30.638-31.802-31.941-53.868c0-1.86,1.508-3.368,3.368-3.368s3.368,1.508,3.368,3.368
				c1.339,19.647,11.948,37.484,28.572,48.04c5.576,4.352,13.211,4.956,19.401,1.533c4.822-3.605,4.099-16.493-4.079-28.342
				l-39.559-57.349c-9.908-14.368-11.059-31.217-2.572-37.566c6.678-5,16.197-4.355,26.809,1.776
				c18.535,10.711,30.511,29.956,31.934,51.316c0,1.86-1.508,3.368-3.368,3.368c-1.86,0-3.368-1.508-3.368-3.368
				c-1.353-18.973-12.063-36.028-28.566-45.487c-8.026-4.638-15.099-5.454-19.401-2.21c-4.816,3.605-4.099,16.487,4.079,28.342
				l39.553,57.349c9.914,14.355,11.072,31.211,2.579,37.566C259.967,321.807,256.007,323.074,251.957,323.007z"/>
			<path style="fill:#D4E1F4;" d="M238.101,333.842c-0.894,0.001-1.751-0.354-2.382-0.986c-0.632-0.632-0.987-1.489-0.986-2.382
				V177.796c0-1.86,1.508-3.368,3.368-3.368s3.368,1.508,3.368,3.368v152.678c0.001,0.894-0.354,1.751-0.986,2.382
				C239.852,333.488,238.995,333.843,238.101,333.842z"/>
		</g>
		<path style="fill:#FFFFFF;" d="M326.213,503.365c-3.883,1.302-8.152,0.703-11.527-1.617l-153.53-87.579
			c-10.233-6.513-16.725-17.535-17.461-29.642V37.175c-0.52-4.596,1.728-9.064,5.729-11.385l-0.068-0.067L183.459,6.32l0.068,0.067
			c3.932-1.398,8.297-0.822,11.731,1.549l8.935,5.12c-0.068,0-0.136,0.067-0.204,0.067l-0.068-0.067l-34.103,19.402l0.068,0.067
			c-4.001,2.321-6.249,6.789-5.729,11.385v347.352c0.736,12.107,7.228,23.129,17.461,29.642L326.213,503.365z"/>
	</g>
	<g>
		<path style="fill:#428DFF;" d="M372.536,126.158c-0.674-14.463-8.337-27.696-20.546-35.48L200.292,3.073
			c-4.667-2.943-10.345-3.82-15.683-2.422c-0.65,0.098-1.281,0.29-1.875,0.572c-0.063,0.029-0.136,0.031-0.199,0.061l-0.016,0.012
			c-0.2,0.056-0.396,0.123-0.589,0.199l-33.665,19.427c-0.132,0.076-0.204,0.206-0.329,0.29c-0.085,0.047-0.185,0.056-0.269,0.104
			c-5.641,3.687-8.846,10.139-8.375,16.862v96.401c0,3.721,3.016,6.737,6.737,6.737s6.737-3.016,6.737-6.737V85.95l172.599,99.651
			v246.821l-172.599-99.651V188.474c0-3.721-3.016-6.737-6.737-6.737s-6.737,3.016-6.737,6.737v197.053
			c0.711,14.471,8.397,27.698,20.618,35.48l151.658,87.586c3.353,2.024,7.177,3.135,11.092,3.224c1.8-0.029,3.583-0.365,5.27-0.993
			c0.658-0.131,1.292-0.362,1.881-0.684l0.502-0.29c0.056-0.031,0.121-0.04,0.176-0.072c0.049-0.028,0.082-0.076,0.13-0.105
			l31.863-18.414l1.191-0.691c0.161-0.1,0.241-0.259,0.389-0.369c5.633-3.624,8.872-10.005,8.472-16.69L372.536,126.158z
			 M345.273,102.362c8.026,5.375,13.117,14.159,13.79,23.796v347.349c0,3.026-0.901,4.809-1.796,5.23
			c-0.211,0.139-0.414,0.29-0.608,0.453c-0.182,0.092-0.389,0.103-0.563,0.212l-17.257,9.981V145.56
			c-0.687-14.458-8.347-27.683-20.546-35.474L169.561,24.191L188,13.55c0.076-0.032,0.158-0.021,0.233-0.056
			c1.889-0.345,3.837,0.118,5.368,1.276L345.273,102.362z M152.766,70.389V38.178c0-3.132,0.888-4.757,1.645-5.197
			c0.789-0.447,2.711-0.408,5.5,1.197l151.658,87.586c8.023,5.379,13.114,14.161,13.796,23.796v24.481L152.766,70.389z
			 M249.812,432.139c0,3.217-0.914,4.888-1.698,5.342c-0.809,0.474-2.77,0.428-5.638-1.237c-8.172-5.488-13.364-14.432-14.079-24.25
			c0-3.217,0.914-4.888,1.698-5.336c0.368-0.187,0.778-0.275,1.191-0.257c1.587,0.113,3.12,0.626,4.454,1.493
			C243.91,413.382,249.1,422.323,249.812,432.139z M166.634,409.329c-8.045-5.372-13.162-14.155-13.868-23.803v-37.195
			l77.579,44.791c-2.444,0.06-4.838,0.699-6.987,1.865c-5.688,3.719-8.916,10.227-8.435,17.007
			c0.717,14.637,8.473,28.021,20.816,35.921c3.391,2.059,7.264,3.191,11.23,3.283c2.762,0.026,5.481-0.68,7.882-2.046
			c5.688-3.722,8.916-10.232,8.435-17.013c-0.379-9.219-3.63-18.088-9.3-25.367l71.379,41.211v44.932
			c0,3.072-0.834,4.674-1.572,5.152l-0.13,0.073c-0.804,0.395-2.649,0.334-5.37-1.225L166.634,409.329z"/>
		<path style="fill:#428DFF;" d="M248.292,98.375l-29.079-16.789c-2.085-1.205-4.654-1.206-6.74-0.002
			c-2.086,1.204-3.37,3.429-3.369,5.837c0.001,2.408,1.286,4.633,3.372,5.835l29.079,16.789c3.223,1.858,7.341,0.753,9.201-2.469
			C252.616,104.356,251.513,100.237,248.292,98.375L248.292,98.375z"/>
		<path style="fill:#428DFF;" d="M271.549,111.803l-5.816-3.362c-3.223-1.858-7.341-0.753-9.201,2.469
			c-1.86,3.222-0.757,7.341,2.464,9.202l5.816,3.362c3.223,1.858,7.341,0.753,9.201-2.469S274.77,113.664,271.549,111.803z"/>
		<path style="fill:#428DFF;" d="M215.582,265.435c0-3.721-3.016-6.737-6.737-6.737s-6.737,3.016-6.737,6.737
			c1.317,21.805,12.443,41.839,30.257,54.482v11.557c0,3.721,3.016,6.737,6.737,6.737s6.737-3.016,6.737-6.737v-5.093
			c2.327,0.627,4.722,0.963,7.132,1c4.775,0.067,9.44-1.438,13.276-4.283c11.263-8.435,7.914-28.066-1.822-42.171l-18.585-26.943
			v-43.983c9.873,9.017,15.883,21.499,16.776,34.84c0,3.721,3.016,6.737,6.737,6.737c3.721,0,6.737-3.016,6.737-6.737
			c-1.358-21.115-12.561-40.365-30.25-51.975v-14.071c0-3.721-3.016-6.737-6.737-6.737s-6.737,3.016-6.737,6.737v7.474
			c-6.851-2.415-14.447-1.379-20.401,2.782c-11.263,8.421-7.928,28.059,1.809,42.171l18.592,26.956v44.331
			C222.441,292.609,216.473,279.425,215.582,265.435z M224.865,223.579c-7.599-11.02-7.447-21.783-4.829-23.743
			c3.98-1.845,8.624-1.54,12.329,0.808v33.808L224.865,223.579z M253.332,288.579c7.605,11.007,7.454,21.776,4.842,23.73
			c-3.853,2.124-8.539,2.064-12.335-0.159v-34.436L253.332,288.579z"/>
		<circle style="fill:#428DFF;" cx="146.034" cy="161.527" r="6.737"/>
	</g>
</g>
<g>
</g>
<g>
</g>
<g>
</g>
<g>
</g>
<g>
</g>
<g>
</g>
<g>
</g>
<g>
</g>
<g>
</g>
<g>
</g>
<g>
</g>
<g>
</g>
<g>
</g>
<g>
</g>
<g>
</g>
</svg>
